<?xml version="1.0" encoding="UTF-8" standalone="no"?>
<!DOCTYPE svg PUBLIC "-//W3C//DTD SVG 1.1//EN" "http://www.w3.org/Graphics/SVG/1.1/DTD/svg11.dtd">
<svg width="100%" height="100%" viewBox="0 0 1024 1024" version="1.1" xmlns="http://www.w3.org/2000/svg" xmlns:xlink="http://www.w3.org/1999/xlink" xml:space="preserve" xmlns:serif="http://www.serif.com/">
    <g transform="matrix(3.26005,0,0,3.26005,-1506.97,-1320.2)">
        <path d="M528.754,467C552.34,467 571.489,486.149 571.489,509.735C571.489,533.321 552.34,552.47 528.754,552.47C505.168,552.47 486.019,533.321 486.019,509.735C486.019,486.149 505.168,467 528.754,467ZM523.673,568.627C547.259,568.627 566.408,587.776 566.408,611.362C566.408,634.948 547.259,654.097 523.673,654.097C500.087,654.097 480.938,634.948 480.938,611.362C480.938,587.776 500.087,568.627 523.673,568.627ZM619.306,623.841C642.892,623.841 662.041,642.99 662.041,666.576C662.041,690.162 642.892,709.311 619.306,709.311C595.72,709.311 576.571,690.162 576.571,666.576C576.571,642.99 595.72,623.841 619.306,623.841ZM709.858,571.561C733.444,571.561 752.593,590.709 752.593,614.295C752.593,637.881 733.444,657.03 709.858,657.03C686.272,657.03 667.123,637.881 667.123,614.295C667.123,590.709 686.272,571.561 709.858,571.561ZM709.826,466.981C733.412,466.981 752.561,486.13 752.561,509.716C752.561,533.302 733.412,552.451 709.826,552.451C686.24,552.451 667.091,533.302 667.091,509.716C667.091,486.13 686.24,466.981 709.826,466.981ZM619.306,414.72C642.892,414.72 662.041,433.869 662.041,457.455C662.041,481.041 642.892,500.189 619.306,500.189C595.72,500.189 576.571,481.041 576.571,457.455C576.571,433.869 595.72,414.72 619.306,414.72ZM619.306,510.566C647.702,510.566 670.755,533.62 670.755,562.015C670.755,590.411 647.702,613.464 619.306,613.464C590.911,613.464 567.857,590.411 567.857,562.015C567.857,533.62 590.911,510.566 619.306,510.566ZM619.306,530.268C601.66,530.268 587.333,544.595 587.333,562.241C587.333,579.888 601.66,594.214 619.306,594.214C636.953,594.214 651.279,579.888 651.279,562.241C651.279,544.595 636.953,530.268 619.306,530.268Z"/>
    </g>
</svg>
